<svg width="36" height="36" viewBox="0 0 36 36" fill="none" xmlns="http://www.w3.org/2000/svg">
<path fill-rule="evenodd" clip-rule="evenodd" d="M17.5095 4.37744C13.9428 4.37744 13.4963 4.39232 12.0955 4.45623C10.6974 4.52014 9.74227 4.74251 8.90707 5.06731C8.0316 5.39649 7.23755 5.91302 6.58094 6.58188C5.91315 7.23772 5.39631 8.03122 5.06638 8.90713C4.74333 9.74233 4.52008 10.6983 4.45617 12.0965C4.39314 13.4964 4.37738 13.942 4.37738 17.5095C4.37738 21.0771 4.39226 21.5227 4.45617 22.9234C4.52008 24.3216 4.74245 25.2767 5.06725 26.1119C5.39643 26.9874 5.91296 27.7814 6.58182 28.438C7.23768 29.1058 8.03117 29.6226 8.90707 29.9526C9.74227 30.2765 10.6974 30.4989 12.0955 30.5628C13.4963 30.6267 13.9428 30.6416 17.5095 30.6416C21.0761 30.6416 21.5226 30.6267 22.9234 30.5628C24.3215 30.4989 25.2766 30.2765 26.1118 29.9517C26.9873 29.6225 27.7814 29.106 28.438 28.4372C29.1058 27.7813 29.6226 26.9878 29.9525 26.1119C30.2765 25.2767 30.4988 24.3216 30.5627 22.9234C30.6266 21.5227 30.6415 21.0762 30.6415 17.5095C30.6415 13.9428 30.6266 13.4964 30.5627 12.0956C30.4988 10.6975 30.2765 9.74233 29.9517 8.90713C29.622 8.03084 29.1051 7.23701 28.4371 6.581C27.7812 5.91321 26.9878 5.39637 26.1118 5.06644C25.2766 4.74339 24.3206 4.52014 22.9225 4.45623C21.5226 4.3932 21.077 4.37744 17.5095 4.37744ZM17.5095 6.74384C21.0157 6.74384 21.4316 6.75697 22.8166 6.82001C24.0965 6.87866 24.7916 7.0914 25.2548 7.27263C25.8676 7.50988 26.3053 7.79528 26.7649 8.25403C27.2246 8.71365 27.5091 9.15139 27.7463 9.76422C27.9267 10.2273 28.1403 10.9225 28.199 12.2024C28.262 13.5874 28.2751 14.0033 28.2751 17.5095C28.2751 21.0158 28.262 21.4316 28.199 22.8166C28.1403 24.0966 27.9276 24.7917 27.7463 25.2548C27.5362 25.8252 27.2008 26.3413 26.7649 26.765C26.3413 27.201 25.8252 27.5363 25.2548 27.7464C24.7916 27.9268 24.0965 28.1404 22.8166 28.199C21.4316 28.2621 21.0166 28.2752 17.5095 28.2752C14.0023 28.2752 13.5873 28.2621 12.2023 28.199C10.9224 28.1404 10.2273 27.9276 9.76416 27.7464C9.19375 27.5362 8.6777 27.2009 8.25397 26.765C7.81814 26.3412 7.48279 25.8252 7.27257 25.2548C7.09222 24.7917 6.8786 24.0966 6.81995 22.8166C6.75691 21.4316 6.74378 21.0158 6.74378 17.5095C6.74378 14.0033 6.75691 13.5874 6.81995 12.2024C6.8786 10.9225 7.09134 10.2273 7.27257 9.76422C7.50982 9.15139 7.79522 8.71365 8.25397 8.25403C8.67765 7.81808 9.19371 7.48272 9.76416 7.27263C10.2273 7.09228 10.9224 6.87866 12.2023 6.82001C13.5873 6.75697 14.0032 6.74384 17.5095 6.74384Z" fill="black"/>
<path fill-rule="evenodd" clip-rule="evenodd" d="M17.5095 21.8912C16.934 21.8912 16.3643 21.7779 15.8326 21.5577C15.301 21.3375 14.818 21.0147 14.4111 20.6079C14.0042 20.201 13.6815 19.7179 13.4613 19.1863C13.2411 18.6547 13.1277 18.0849 13.1277 17.5095C13.1277 16.9341 13.2411 16.3643 13.4613 15.8327C13.6815 15.3011 14.0042 14.818 14.4111 14.4111C14.818 14.0043 15.301 13.6815 15.8326 13.4613C16.3643 13.2411 16.934 13.1278 17.5095 13.1278C18.6716 13.1278 19.7861 13.5894 20.6078 14.4111C21.4296 15.2329 21.8912 16.3474 21.8912 17.5095C21.8912 18.6716 21.4296 19.7861 20.6078 20.6079C19.7861 21.4296 18.6716 21.8912 17.5095 21.8912ZM17.5095 10.7596C15.7193 10.7596 14.0024 11.4708 12.7366 12.7366C11.4707 14.0025 10.7596 15.7193 10.7596 17.5095C10.7596 19.2997 11.4707 21.0165 12.7366 22.2824C14.0024 23.5482 15.7193 24.2594 17.5095 24.2594C19.2996 24.2594 21.0165 23.5482 22.2824 22.2824C23.5482 21.0165 24.2594 19.2997 24.2594 17.5095C24.2594 15.7193 23.5482 14.0025 22.2824 12.7366C21.0165 11.4708 19.2996 10.7596 17.5095 10.7596ZM26.223 10.6371C26.223 11.0602 26.0549 11.4661 25.7557 11.7653C25.4565 12.0645 25.0507 12.2326 24.6275 12.2326C24.2043 12.2326 23.7985 12.0645 23.4993 11.7653C23.2 11.4661 23.0319 11.0602 23.0319 10.6371C23.0319 10.2139 23.2 9.80805 23.4993 9.50883C23.7985 9.20961 24.2043 9.0415 24.6275 9.0415C25.0507 9.0415 25.4565 9.20961 25.7557 9.50883C26.0549 9.80805 26.223 10.2139 26.223 10.6371Z" fill="black"/>
</svg>
