<svg width="20" height="40" viewBox="0 0 20 40" fill="none" xmlns="http://www.w3.org/2000/svg">
<path d="M16.6138 39.6094C16.2129 39.6108 15.8168 39.5177 15.4546 39.3368C15.0924 39.1559 14.7733 38.8918 14.5207 38.564L1.55967 21.6111C1.16498 21.1055 0.949219 20.4713 0.949219 19.8169C0.949219 19.1624 1.16498 18.5283 1.55967 18.0227L14.9769 1.06979C15.4324 0.492774 16.0869 0.129913 16.7965 0.0610283C17.5061 -0.00785626 18.2126 0.222878 18.7606 0.702472C19.3086 1.18207 19.6532 1.87123 19.7186 2.61837C19.7841 3.3655 19.5649 4.1094 19.1094 4.68641L7.11441 19.831L18.7069 34.9756C19.0351 35.3904 19.2435 35.8954 19.3076 36.431C19.3717 36.9665 19.2887 37.5102 19.0685 37.9977C18.8483 38.4852 18.5001 38.896 18.0651 39.1816C17.6301 39.4673 17.1265 39.6157 16.6138 39.6094Z" fill="#89A593"/>
</svg>
