<svg width="20" height="40" viewBox="0 0 20 40" fill="none" xmlns="http://www.w3.org/2000/svg">
<path d="M3.38618 0.287075C3.78707 0.285641 4.18318 0.378799 4.54539 0.559711C4.9076 0.740623 5.22671 1.00469 5.47927 1.33251L18.4403 18.2854C18.835 18.791 19.0508 19.4251 19.0508 20.0796C19.0508 20.7341 18.835 21.3682 18.4403 21.8738L5.02308 38.8267C4.5676 39.4037 3.91308 39.7666 3.2035 39.8355C2.49393 39.9043 1.78743 39.6736 1.23942 39.194C0.691416 38.7144 0.346796 38.0253 0.281374 37.2781C0.215954 36.531 0.435087 35.7871 0.890572 35.2101L12.8856 20.0655L1.29309 4.92087C0.964951 4.50613 0.756508 4.0011 0.692429 3.46553C0.628349 2.92997 0.711313 2.38628 0.931505 1.8988C1.1517 1.41133 1.4999 1.00047 1.93492 0.71484C2.36993 0.429211 2.87355 0.280769 3.38618 0.287075Z" fill="#89A593"/>
</svg>
