<svg width="36" height="36" viewBox="0 0 36 36" fill="none" xmlns="http://www.w3.org/2000/svg">
<path d="M13.4115 18.9879C13.4115 19.4997 13.2597 20 12.9754 20.4255C12.691 20.851 12.2869 21.1827 11.8141 21.3785C11.3413 21.5744 10.821 21.6256 10.319 21.5258C9.8171 21.4259 9.35603 21.1795 8.99415 20.8176C8.63226 20.4557 8.38582 19.9947 8.28598 19.4927C8.18613 18.9908 8.23738 18.4705 8.43323 17.9977C8.62907 17.5248 8.96073 17.1207 9.38626 16.8364C9.81179 16.552 10.3121 16.4003 10.8239 16.4003C11.5101 16.4003 12.1683 16.6729 12.6536 17.1582C13.1388 17.6434 13.4115 18.3016 13.4115 18.9879ZM25.4086 16.4003C24.8968 16.4003 24.3965 16.552 23.971 16.8364C23.5455 17.1207 23.2138 17.5248 23.018 17.9977C22.8221 18.4705 22.7709 18.9908 22.8707 19.4927C22.9705 19.9947 23.217 20.4557 23.5789 20.8176C23.9408 21.1795 24.4018 21.4259 24.9038 21.5258C25.4057 21.6256 25.926 21.5744 26.3988 21.3785C26.8716 21.1827 27.2758 20.851 27.5601 20.4255C27.8444 20 27.9962 19.4997 27.9962 18.9879C27.996 18.302 27.7235 17.6442 27.2385 17.1592C26.7536 16.6741 26.0959 16.4014 25.41 16.401L25.4086 16.4003ZM32.7042 18.9879C32.7042 23.0148 29.4366 26.2795 25.4086 26.2795C23.5712 26.2825 21.8009 25.5891 20.4544 24.3388L18.1195 26.8794L15.7834 24.336C14.437 25.5875 12.6661 26.2821 10.8278 26.2795C6.80265 26.2795 3.53617 23.0148 3.53617 18.9879C3.5348 17.9734 3.7457 16.9699 4.15532 16.0418C4.56493 15.1137 5.1642 14.2815 5.9146 13.5989L3.52826 11.0026H8.82997C11.5712 9.13705 14.8104 8.1394 18.1263 8.1394C21.4422 8.1394 24.6813 9.13705 27.4226 11.0026H32.7106L30.3247 13.5989C31.0753 14.2814 31.6749 15.1135 32.0847 16.0416C32.4946 16.9697 32.7057 17.9733 32.7045 18.9879H32.7042ZM15.7604 18.9879C15.7604 18.0119 15.471 17.0578 14.9287 16.2462C14.3865 15.4347 13.6158 14.8022 12.714 14.4287C11.8123 14.0552 10.8201 13.9575 9.8628 14.148C8.90553 14.3384 8.02624 14.8084 7.33612 15.4986C6.64599 16.1888 6.17603 17.0681 5.98566 18.0254C5.79529 18.9827 5.89307 19.9749 6.26662 20.8766C6.64018 21.7783 7.27274 22.549 8.0843 23.0912C8.89587 23.6334 9.84999 23.9227 10.826 23.9227C11.4741 23.9227 12.1158 23.7951 12.7145 23.5471C13.3133 23.2991 13.8573 22.9356 14.3155 22.4774C14.7738 22.0192 15.1373 21.4751 15.3852 20.8764C15.6332 20.2777 15.7608 19.6359 15.7608 18.9879H15.7604ZM23.5951 11.6204C21.8598 10.8974 19.9985 10.5252 18.1186 10.5252C16.2386 10.5252 14.3773 10.8974 12.642 11.6204C15.7575 12.8129 18.1195 15.5981 18.1195 18.8456C18.1195 15.5985 20.481 12.8129 23.5955 11.6208L23.5951 11.6204ZM30.3444 18.9879C30.3444 18.0119 30.055 17.0578 29.5127 16.2462C28.9705 15.4347 28.1998 14.8022 27.298 14.4287C26.3963 14.0552 25.4041 13.9575 24.4468 14.148C23.4895 14.3384 22.6103 14.8084 21.9201 15.4986C21.23 16.1888 20.76 17.0681 20.5697 18.0254C20.3793 18.9827 20.4771 19.9749 20.8506 20.8766C21.2242 21.7783 21.8567 22.549 22.6683 23.0912C23.4799 23.6334 24.434 23.9227 25.41 23.9227C26.7188 23.9227 27.974 23.4027 28.8994 22.4773C29.8249 21.5519 30.3448 20.2967 30.3448 18.9879H30.3444Z" fill="black"/>
</svg>
