<svg width="34" height="35" viewBox="0 0 34 35" fill="none" xmlns="http://www.w3.org/2000/svg">
<path d="M28.3403 11.8042C28.3573 12.0507 28.3573 12.2973 28.3573 12.5461C28.3573 20.1277 22.5856 28.8715 12.0319 28.8715V28.867C8.91428 28.8715 5.86143 27.9785 3.23691 26.2947C3.69023 26.3492 4.14583 26.3765 4.60257 26.3776C7.18618 26.3799 9.69595 25.513 11.7285 23.9167C9.2733 23.8702 7.12029 22.2693 6.36815 19.9322C7.22822 20.0981 8.11442 20.064 8.95858 19.8334C6.2818 19.2926 4.35602 16.9407 4.35602 14.2094C4.35602 14.1844 4.35602 14.1606 4.35602 14.1367C5.1536 14.5809 6.04662 14.8275 6.96009 14.8548C4.43896 13.1698 3.66183 9.81592 5.18428 7.19367C8.09738 10.7782 12.3955 12.9574 17.0094 13.188C16.547 11.1952 17.1787 9.10695 18.6693 7.70608C20.9802 5.53375 24.6148 5.64509 26.7871 7.95489C28.0721 7.70153 29.3037 7.23003 30.4308 6.56197C30.0024 7.89013 29.106 9.01833 27.9085 9.73525C29.0458 9.60118 30.157 9.29669 31.2034 8.83201C30.4331 9.98634 29.4628 10.9918 28.3403 11.8042Z" fill="black"/>
</svg>
