<svg width="36" height="36" viewBox="0 0 36 36" fill="none" xmlns="http://www.w3.org/2000/svg">
<path d="M13.7181 21.3308L15.0618 21.0203C15.0901 21.0138 15.1368 21.0031 15.1938 20.9847C15.5645 20.8849 15.8823 20.6452 16.08 20.3157C16.2778 19.9864 16.3402 19.5931 16.254 19.2189C16.2522 19.2107 16.2504 19.2029 16.2485 19.1947C16.2043 19.0153 16.127 18.8457 16.0205 18.695C15.8699 18.5038 15.6836 18.3441 15.4719 18.2244C15.2227 18.0822 14.9619 17.9614 14.6922 17.8633L13.2189 17.3255C12.392 17.0181 11.5652 16.7184 10.7307 16.4261C10.1895 16.2336 9.73093 16.0645 9.33249 15.9413C9.25728 15.9181 9.17432 15.8949 9.10685 15.8717C8.62517 15.724 8.28673 15.6628 8.00031 15.6608C7.80901 15.6538 7.61845 15.6885 7.44187 15.7626C7.25786 15.842 7.0926 15.9593 6.95689 16.1069C6.88939 16.1836 6.82592 16.2639 6.76675 16.3471C6.71122 16.4321 6.6603 16.5199 6.6142 16.6103C6.56345 16.7073 6.51982 16.8078 6.48369 16.911C6.21024 17.7194 6.07402 18.5678 6.08071 19.421C6.08564 20.1923 6.10636 21.1823 6.53033 21.8534C6.63249 22.0256 6.76959 22.1746 6.93279 22.2905C7.23483 22.499 7.54004 22.5265 7.85759 22.5494C8.33212 22.5835 8.79184 22.4668 9.25014 22.3609L13.7143 21.3295L13.7181 21.3308Z" fill="black"/>
<path d="M28.7095 14.1963C28.3426 13.4263 27.8494 12.7234 27.2503 12.1166C27.1729 12.0396 27.0899 11.9683 27.002 11.9034C26.9208 11.8425 26.8365 11.7859 26.7494 11.7339C26.6599 11.6848 26.5678 11.6405 26.4735 11.6013C26.2872 11.5281 26.0874 11.4951 25.8875 11.5045C25.6963 11.5154 25.5096 11.5677 25.3406 11.658C25.0843 11.7854 24.807 11.9902 24.4382 12.3331C24.3873 12.3837 24.3232 12.4408 24.2658 12.4946C23.9614 12.7807 23.623 13.1334 23.2202 13.5441C22.5979 14.173 21.985 14.8053 21.376 15.4445L20.2863 16.5745C20.0868 16.781 19.9051 17.004 19.7432 17.2412C19.6053 17.4416 19.5076 17.6671 19.4558 17.9049C19.4259 18.0872 19.4303 18.2736 19.4688 18.4543C19.4707 18.4625 19.4725 18.4703 19.4744 18.4785C19.5605 18.8528 19.7884 19.179 20.1101 19.3883C20.4318 19.5977 20.8222 19.6739 21.1991 19.6008C21.2588 19.5922 21.3052 19.5819 21.3334 19.575L27.1433 18.2327C27.6012 18.1268 28.0658 18.0299 28.4772 17.7911C28.7531 17.631 29.0156 17.4725 29.1956 17.1525C29.2917 16.9767 29.3499 16.7827 29.3665 16.5831C29.4556 15.7912 29.0422 14.892 28.7095 14.1963Z" fill="black"/>
<path d="M18.311 16.6396C18.732 16.1107 18.731 15.3224 18.7686 14.6778C18.8953 12.5244 19.0288 10.3707 19.1345 8.21612C19.1749 7.40002 19.2628 6.59498 19.2142 5.77267C19.1743 5.0943 19.1694 4.31544 18.741 3.75873C17.985 2.77702 16.3729 2.85771 15.2729 3.00999C14.9359 3.05676 14.5984 3.11965 14.2636 3.20003C13.9287 3.28041 13.5973 3.3682 13.2731 3.47204C12.2176 3.81777 10.7338 4.4524 10.4825 5.66857C10.3409 6.35611 10.6765 7.05942 10.9369 7.68687C11.2526 8.44746 11.6837 9.13259 12.0766 9.84857C13.1154 11.7387 14.1735 13.6171 15.2286 15.4975C15.5437 16.0588 15.8871 16.7698 16.4967 17.0606C16.537 17.0782 16.5782 17.0938 16.62 17.1072C16.8934 17.2107 17.1914 17.2307 17.4762 17.1645C17.4934 17.1605 17.5102 17.1567 17.527 17.1527C17.79 17.0812 18.0281 16.9383 18.2149 16.7396C18.2486 16.7079 18.2807 16.6746 18.311 16.6396Z" fill="black"/>
<path d="M17.8069 22.4047C17.6426 22.1735 17.4093 22.0003 17.1406 21.9097C16.8718 21.8192 16.5813 21.8159 16.3105 21.9006C16.2469 21.9216 16.1849 21.9475 16.1251 21.9775C16.0324 22.0246 15.9441 22.0797 15.861 22.1422C15.6188 22.3215 15.4149 22.5546 15.2293 22.7884C15.1822 22.848 15.1392 22.9274 15.0832 22.9783L14.1487 24.2639C13.619 24.984 13.0966 25.706 12.5786 26.4394C12.2406 26.9129 11.9483 27.3128 11.7173 27.6666C11.6736 27.7332 11.6281 27.8076 11.5865 27.8669C11.3098 28.2951 11.153 28.6076 11.0726 28.886C11.0121 29.0711 10.993 29.267 11.0165 29.4601C11.0423 29.6613 11.11 29.8547 11.2153 30.028C11.2713 30.1148 11.3317 30.1988 11.3962 30.2796C11.4632 30.3574 11.5344 30.4314 11.6094 30.5014C11.6895 30.5778 11.7752 30.6482 11.8658 30.712C12.5108 31.1608 13.2169 31.4832 13.9597 31.7323C14.5778 31.9375 15.2203 32.0604 15.8706 32.0976C15.9812 32.1032 16.0921 32.1007 16.2024 32.0904C16.3046 32.0815 16.4063 32.0672 16.507 32.0477C16.6077 32.0242 16.707 31.9952 16.8046 31.9612C16.9945 31.8901 17.1674 31.7801 17.3122 31.6381C17.4492 31.5008 17.5547 31.3354 17.6212 31.1531C17.7292 30.8839 17.8003 30.5419 17.847 30.0344C17.8511 29.9623 17.8614 29.8757 17.8686 29.7963C17.9054 29.3752 17.9223 28.8806 17.9494 28.2989C17.9951 27.4044 18.031 26.5138 18.0593 25.6207C18.0593 25.6207 18.1195 24.0336 18.1193 24.0327C18.1331 23.6669 18.1218 23.2616 18.0203 22.8975C17.9758 22.7229 17.9037 22.5566 17.8069 22.4047Z" fill="black"/>
<path d="M28.3553 24.8899C28.1602 24.6759 27.8838 24.4627 27.4479 24.199C27.385 24.1639 27.3113 24.1171 27.2433 24.0763C26.8803 23.858 26.4431 23.6284 25.9324 23.3511C25.1479 22.9203 24.3628 22.5005 23.5703 22.084L22.1701 21.3414C22.0975 21.3201 22.0238 21.2677 21.9554 21.2347C21.6864 21.1061 21.4011 20.986 21.1052 20.9309C21.0031 20.9114 20.8996 20.9006 20.7958 20.8988C20.7287 20.898 20.6619 20.9021 20.5954 20.911C20.3154 20.9544 20.0563 21.085 19.8548 21.2845C19.6533 21.4839 19.5199 21.7417 19.4734 22.0214C19.4521 22.1993 19.4586 22.3793 19.4928 22.5553C19.5612 22.9279 19.7276 23.2964 19.8997 23.6192L20.6474 25.0206C21.0635 25.811 21.4845 26.5969 21.9163 27.3803C22.1947 27.8912 22.4265 28.3286 22.6436 28.691C22.6847 28.7592 22.7313 28.8325 22.7665 28.8956C23.0307 29.3314 23.2431 29.6057 23.4583 29.8024C23.5977 29.937 23.7649 30.0394 23.9479 30.1027C24.1404 30.1665 24.3442 30.1891 24.546 30.1692C24.6487 30.157 24.7506 30.1394 24.8514 30.1162C24.9506 30.0896 25.0485 30.0578 25.1443 30.0209C25.2479 29.982 25.3485 29.9355 25.4453 29.8819C26.0138 29.5632 26.5377 29.1708 27.0038 28.7151C27.5627 28.1651 28.0567 27.5654 28.441 26.8788C28.4944 26.7817 28.5406 26.6808 28.5794 26.577C28.6157 26.4809 28.6471 26.3831 28.6734 26.2838C28.696 26.183 28.7135 26.0809 28.7256 25.9783C28.7447 25.7766 28.7213 25.5733 28.6568 25.3812C28.5934 25.1974 28.4905 25.0295 28.3553 24.8899Z" fill="black"/>
</svg>
